<svg width="221" height="44" viewBox="0 0 221 44" fill="none" xmlns="http://www.w3.org/2000/svg">
<g clip-path="url(#clip0_7_11)">
<rect x="53.4551" y="29.3252" width="11.0944" height="10.9828" transform="rotate(-134.644 53.4551 29.3252)" fill="url(#paint0_linear_7_11)"/>
<rect y="22.1733" width="10.9525" height="31.286" transform="rotate(-45 0 22.1733)" fill="url(#paint1_linear_7_11)"/>
<path d="M47.6734 43.8821C47.6734 43.8821 57.1906 34.7615 65.9343 26.1735L54.2899 14.5349C55.8661 19.2679 52.359 24.2066 50.4084 26.0843L40.2599 36.2147L47.6734 43.8821Z" fill="url(#paint2_linear_7_11)"/>
<path d="M22.075 0L0 21.6657L11.6121 33C10.0223 28.373 13.4717 23.5159 15.3951 21.6657L30 7.53286L22.075 0Z" fill="url(#paint3_linear_7_11)"/>
<path d="M25.7113 22.1666L47.7823 44.1677L59.3792 32.6455C54.6519 34.2161 49.7006 30.775 47.8159 28.8581L33.4192 14.3025L25.7113 22.1666Z" fill="url(#paint4_linear_7_11)"/>
<path d="M47.3392 0L26 21.6657L37.2251 33C35.6883 28.373 39.0226 23.5159 40.8819 21.6657L55 7.53286L47.3392 0Z" fill="url(#paint5_linear_7_11)"/>
<path d="M76.99 22.44C76.99 20.36 77.44 18.51 78.34 16.89C79.24 15.25 80.49 13.98 82.09 13.08C83.71 12.16 85.54 11.7 87.58 11.7C90.08 11.7 92.22 12.36 94 13.68C95.78 15 96.97 16.8 97.57 19.08H91.93C91.51 18.2 90.91 17.53 90.13 17.07C89.37 16.61 88.5 16.38 87.52 16.38C85.94 16.38 84.66 16.93 83.68 18.03C82.7 19.13 82.21 20.6 82.21 22.44C82.21 24.28 82.7 25.75 83.68 26.85C84.66 27.95 85.94 28.5 87.52 28.5C88.5 28.5 89.37 28.27 90.13 27.81C90.91 27.35 91.51 26.68 91.93 25.8H97.57C96.97 28.08 95.78 29.88 94 31.2C92.22 32.5 90.08 33.15 87.58 33.15C85.54 33.15 83.71 32.7 82.09 31.8C80.49 30.88 79.24 29.61 78.34 27.99C77.44 26.37 76.99 24.52 76.99 22.44ZM110.672 33.21C108.692 33.21 106.872 32.75 105.212 31.83C103.572 30.91 102.262 29.63 101.282 27.99C100.322 26.33 99.8416 24.47 99.8416 22.41C99.8416 20.35 100.322 18.5 101.282 16.86C102.262 15.22 103.572 13.94 105.212 13.02C106.872 12.1 108.692 11.64 110.672 11.64C112.652 11.64 114.462 12.1 116.102 13.02C117.762 13.94 119.062 15.22 120.002 16.86C120.962 18.5 121.442 20.35 121.442 22.41C121.442 24.47 120.962 26.33 120.002 27.99C119.042 29.63 117.742 30.91 116.102 31.83C114.462 32.75 112.652 33.21 110.672 33.21ZM110.672 28.53C112.352 28.53 113.692 27.97 114.692 26.85C115.712 25.73 116.222 24.25 116.222 22.41C116.222 20.55 115.712 19.07 114.692 17.97C113.692 16.85 112.352 16.29 110.672 16.29C108.972 16.29 107.612 16.84 106.592 17.94C105.592 19.04 105.092 20.53 105.092 22.41C105.092 24.27 105.592 25.76 106.592 26.88C107.612 27.98 108.972 28.53 110.672 28.53ZM132.186 11.94C134.406 11.94 136.346 12.38 138.006 13.26C139.666 14.14 140.946 15.38 141.846 16.98C142.766 18.56 143.226 20.39 143.226 22.47C143.226 24.53 142.766 26.36 141.846 27.96C140.946 29.56 139.656 30.8 137.976 31.68C136.316 32.56 134.386 33 132.186 33H124.296V11.94H132.186ZM131.856 28.56C133.796 28.56 135.306 28.03 136.386 26.97C137.466 25.91 138.006 24.41 138.006 22.47C138.006 20.53 137.466 19.02 136.386 17.94C135.306 16.86 133.796 16.32 131.856 16.32H129.426V28.56H131.856ZM151.222 16.05V20.31H158.092V24.27H151.222V28.89H158.992V33H146.092V11.94H158.992V16.05H151.222ZM178.613 18.15C178.033 16.93 177.193 15.99 176.093 15.33C174.993 14.65 173.713 14.31 172.253 14.31C170.793 14.31 169.473 14.65 168.293 15.33C167.133 15.99 166.213 16.95 165.533 18.21C164.873 19.45 164.543 20.89 164.543 22.53C164.543 24.17 164.873 25.61 165.533 26.85C166.213 28.09 167.133 29.05 168.293 29.73C169.473 30.39 170.793 30.72 172.253 30.72C174.293 30.72 175.973 30.11 177.293 28.89C178.613 27.67 179.383 26.02 179.603 23.94H171.263V21.72H182.513V23.82C182.353 25.54 181.813 27.12 180.893 28.56C179.973 29.98 178.763 31.11 177.263 31.95C175.763 32.77 174.093 33.18 172.253 33.18C170.313 33.18 168.543 32.73 166.943 31.83C165.343 30.91 164.073 29.64 163.133 28.02C162.213 26.4 161.753 24.57 161.753 22.53C161.753 20.49 162.213 18.66 163.133 17.04C164.073 15.4 165.343 14.13 166.943 13.23C168.543 12.31 170.313 11.85 172.253 11.85C174.473 11.85 176.433 12.4 178.133 13.5C179.853 14.6 181.103 16.15 181.883 18.15H178.613ZM188.853 14.31V21.3H196.473V23.55H188.853V30.75H197.373V33H186.123V12.06H197.373V14.31H188.853ZM214.373 12.09V14.31H208.673V33H205.943V14.31H200.213V12.09H214.373Z" fill="#242020"/>
</g>
<defs>
<linearGradient id="paint0_linear_7_11" x1="59.0023" y1="29.3252" x2="59.0023" y2="40.308" gradientUnits="userSpaceOnUse">
<stop stop-color="#0047FF"/>
<stop offset="1" stop-color="#0047FF"/>
</linearGradient>
<linearGradient id="paint1_linear_7_11" x1="5.47624" y1="22.1733" x2="5.47624" y2="53.4593" gradientUnits="userSpaceOnUse">
<stop stop-color="#0047FF"/>
<stop offset="1" stop-color="#0047FF" stop-opacity="0.62"/>
</linearGradient>
<linearGradient id="paint2_linear_7_11" x1="51.1171" y1="32.2861" x2="59.3603" y2="20.6437" gradientUnits="userSpaceOnUse">
<stop stop-color="#1758FF"/>
<stop offset="1" stop-color="#4F80FF"/>
</linearGradient>
<linearGradient id="paint3_linear_7_11" x1="26.2171" y1="1.74912" x2="7.04427" y2="27.423" gradientUnits="userSpaceOnUse">
<stop stop-color="#0047FF"/>
<stop offset="1" stop-color="#4F80FF"/>
</linearGradient>
<linearGradient id="paint4_linear_7_11" x1="34.5917" y1="24.2143" x2="56.4729" y2="40.3097" gradientUnits="userSpaceOnUse">
<stop stop-color="#0047FF"/>
<stop offset="0.802614" stop-color="#4F80FF"/>
</linearGradient>
<linearGradient id="paint5_linear_7_11" x1="51.3432" y1="1.74912" x2="31.9952" y2="26.794" gradientUnits="userSpaceOnUse">
<stop stop-color="#0047FF"/>
<stop offset="1" stop-color="#4F80FF"/>
</linearGradient>
<clipPath id="clip0_7_11">
<rect width="221" height="44" fill="white"/>
</clipPath>
</defs>
</svg>
